<mxfile host="app.diagrams.net" modified="2021-01-13T12:05:58.265Z" agent="5.0 (Macintosh; Intel Mac OS X 10_15_7) AppleWebKit/537.36 (KHTML, like Gecko) Chrome/86.0.4240.198 Safari/537.36" etag="fcH_FjFHJmZPqPG1bTvc" version="14.1.9" type="github" pages="2">
  <diagram id="_S8czTXeEUZWKj36Bfly" name="事件流设计器">
    <mxGraphModel dx="1426" dy="946" grid="1" gridSize="10" guides="1" tooltips="1" connect="1" arrows="1" fold="1" page="1" pageScale="1" pageWidth="827" pageHeight="1169" math="0" shadow="0">
      <root>
        <mxCell id="0" />
        <mxCell id="1" parent="0" />
        <mxCell id="MlIgKcx3DfCS0xwd3TZx-8" value="" style="rounded=1;whiteSpace=wrap;html=1;fillColor=#fff2cc;strokeColor=#d6b656;" parent="1" vertex="1">
          <mxGeometry x="235" y="50" width="845" height="620" as="geometry" />
        </mxCell>
        <mxCell id="MlIgKcx3DfCS0xwd3TZx-1" value="" style="rounded=1;whiteSpace=wrap;html=1;fillColor=#dae8fc;strokeColor=#6c8ebf;" parent="1" vertex="1">
          <mxGeometry x="360" y="150" width="160" height="270" as="geometry" />
        </mxCell>
        <mxCell id="MlIgKcx3DfCS0xwd3TZx-3" value="后端事件" style="text;html=1;align=center;verticalAlign=middle;resizable=0;points=[];autosize=1;" parent="1" vertex="1">
          <mxGeometry x="410" y="120" width="60" height="20" as="geometry" />
        </mxCell>
        <mxCell id="MlIgKcx3DfCS0xwd3TZx-9" value="&lt;font style=&quot;font-size: 18px&quot;&gt;事件流设计器&lt;/font&gt;" style="text;html=1;align=center;verticalAlign=middle;resizable=0;points=[];autosize=1;" parent="1" vertex="1">
          <mxGeometry x="565" y="70" width="120" height="20" as="geometry" />
        </mxCell>
        <mxCell id="MlIgKcx3DfCS0xwd3TZx-10" value="&lt;span&gt;CRUD事件&lt;/span&gt;" style="whiteSpace=wrap;html=1;fillColor=#d5e8d4;strokeColor=#82b366;" parent="1" vertex="1">
          <mxGeometry x="400" y="170" width="80" height="40" as="geometry" />
        </mxCell>
        <mxCell id="MlIgKcx3DfCS0xwd3TZx-13" value="赋值事件" style="whiteSpace=wrap;html=1;fillColor=#d5e8d4;strokeColor=#82b366;" parent="1" vertex="1">
          <mxGeometry x="400" y="230" width="80" height="40" as="geometry" />
        </mxCell>
        <mxCell id="MlIgKcx3DfCS0xwd3TZx-14" value="导出事件" style="whiteSpace=wrap;html=1;fillColor=#d5e8d4;strokeColor=#82b366;" parent="1" vertex="1">
          <mxGeometry x="400" y="350" width="80" height="40" as="geometry" />
        </mxCell>
        <mxCell id="MlIgKcx3DfCS0xwd3TZx-15" value="自定义事件" style="whiteSpace=wrap;html=1;fillColor=#d5e8d4;strokeColor=#82b366;" parent="1" vertex="1">
          <mxGeometry x="400" y="290" width="80" height="40" as="geometry" />
        </mxCell>
        <mxCell id="MlIgKcx3DfCS0xwd3TZx-16" value="" style="rounded=1;whiteSpace=wrap;html=1;fillColor=#dae8fc;strokeColor=#6c8ebf;" parent="1" vertex="1">
          <mxGeometry x="550" y="150" width="160" height="270" as="geometry" />
        </mxCell>
        <mxCell id="MlIgKcx3DfCS0xwd3TZx-17" value="前端事件" style="text;html=1;align=center;verticalAlign=middle;resizable=0;points=[];autosize=1;" parent="1" vertex="1">
          <mxGeometry x="600" y="120" width="60" height="20" as="geometry" />
        </mxCell>
        <mxCell id="MlIgKcx3DfCS0xwd3TZx-18" value="弹窗" style="whiteSpace=wrap;html=1;fillColor=#d5e8d4;strokeColor=#82b366;" parent="1" vertex="1">
          <mxGeometry x="590" y="170" width="80" height="40" as="geometry" />
        </mxCell>
        <mxCell id="MlIgKcx3DfCS0xwd3TZx-19" value="查询" style="whiteSpace=wrap;html=1;fillColor=#d5e8d4;strokeColor=#82b366;" parent="1" vertex="1">
          <mxGeometry x="590" y="230" width="80" height="40" as="geometry" />
        </mxCell>
        <mxCell id="MlIgKcx3DfCS0xwd3TZx-20" value="。。。" style="whiteSpace=wrap;html=1;fillColor=#d5e8d4;strokeColor=#82b366;" parent="1" vertex="1">
          <mxGeometry x="590" y="350" width="80" height="40" as="geometry" />
        </mxCell>
        <mxCell id="MlIgKcx3DfCS0xwd3TZx-21" value="保存" style="whiteSpace=wrap;html=1;fillColor=#d5e8d4;strokeColor=#82b366;" parent="1" vertex="1">
          <mxGeometry x="590" y="290" width="80" height="40" as="geometry" />
        </mxCell>
        <mxCell id="MlIgKcx3DfCS0xwd3TZx-22" value="" style="rounded=1;whiteSpace=wrap;html=1;fillColor=#dae8fc;strokeColor=#6c8ebf;" parent="1" vertex="1">
          <mxGeometry x="760" y="150" width="160" height="270" as="geometry" />
        </mxCell>
        <mxCell id="MlIgKcx3DfCS0xwd3TZx-23" value="流程节点" style="text;html=1;align=center;verticalAlign=middle;resizable=0;points=[];autosize=1;" parent="1" vertex="1">
          <mxGeometry x="810" y="120" width="60" height="20" as="geometry" />
        </mxCell>
        <mxCell id="MlIgKcx3DfCS0xwd3TZx-24" value="&lt;span&gt;开始&lt;/span&gt;" style="whiteSpace=wrap;html=1;fillColor=#d5e8d4;strokeColor=#82b366;" parent="1" vertex="1">
          <mxGeometry x="800" y="170" width="80" height="40" as="geometry" />
        </mxCell>
        <mxCell id="MlIgKcx3DfCS0xwd3TZx-25" value="结束" style="whiteSpace=wrap;html=1;fillColor=#d5e8d4;strokeColor=#82b366;" parent="1" vertex="1">
          <mxGeometry x="800" y="230" width="80" height="40" as="geometry" />
        </mxCell>
        <mxCell id="MlIgKcx3DfCS0xwd3TZx-26" value="后端条件" style="whiteSpace=wrap;html=1;fillColor=#d5e8d4;strokeColor=#82b366;" parent="1" vertex="1">
          <mxGeometry x="800" y="350" width="80" height="40" as="geometry" />
        </mxCell>
        <mxCell id="MlIgKcx3DfCS0xwd3TZx-27" value="前端条件" style="whiteSpace=wrap;html=1;fillColor=#d5e8d4;strokeColor=#82b366;" parent="1" vertex="1">
          <mxGeometry x="800" y="290" width="80" height="40" as="geometry" />
        </mxCell>
        <mxCell id="MlIgKcx3DfCS0xwd3TZx-32" value="" style="edgeStyle=orthogonalEdgeStyle;rounded=0;orthogonalLoop=1;jettySize=auto;html=1;" parent="1" source="MlIgKcx3DfCS0xwd3TZx-30" target="MlIgKcx3DfCS0xwd3TZx-31" edge="1">
          <mxGeometry relative="1" as="geometry" />
        </mxCell>
        <mxCell id="MlIgKcx3DfCS0xwd3TZx-30" value="开始" style="ellipse;whiteSpace=wrap;html=1;aspect=fixed;fillColor=#e1d5e7;strokeColor=#9673a6;" parent="1" vertex="1">
          <mxGeometry x="360" y="480" width="40" height="40" as="geometry" />
        </mxCell>
        <mxCell id="MlIgKcx3DfCS0xwd3TZx-34" value="" style="edgeStyle=orthogonalEdgeStyle;rounded=0;orthogonalLoop=1;jettySize=auto;html=1;" parent="1" source="MlIgKcx3DfCS0xwd3TZx-31" target="MlIgKcx3DfCS0xwd3TZx-43" edge="1">
          <mxGeometry relative="1" as="geometry">
            <mxPoint x="595" y="500" as="targetPoint" />
          </mxGeometry>
        </mxCell>
        <mxCell id="MlIgKcx3DfCS0xwd3TZx-31" value="事件" style="whiteSpace=wrap;html=1;fillColor=#e1d5e7;strokeColor=#9673a6;" parent="1" vertex="1">
          <mxGeometry x="450" y="470" width="120" height="60" as="geometry" />
        </mxCell>
        <mxCell id="MlIgKcx3DfCS0xwd3TZx-46" style="edgeStyle=orthogonalEdgeStyle;rounded=0;orthogonalLoop=1;jettySize=auto;html=1;exitX=1;exitY=0.5;exitDx=0;exitDy=0;entryX=0;entryY=0.5;entryDx=0;entryDy=0;" parent="1" source="MlIgKcx3DfCS0xwd3TZx-43" target="MlIgKcx3DfCS0xwd3TZx-44" edge="1">
          <mxGeometry relative="1" as="geometry" />
        </mxCell>
        <mxCell id="DJhn8uhRI69oNtYbBqwW-3" style="edgeStyle=orthogonalEdgeStyle;rounded=0;orthogonalLoop=1;jettySize=auto;html=1;exitX=0.5;exitY=1;exitDx=0;exitDy=0;entryX=0;entryY=0.5;entryDx=0;entryDy=0;" parent="1" source="MlIgKcx3DfCS0xwd3TZx-43" target="DJhn8uhRI69oNtYbBqwW-2" edge="1">
          <mxGeometry relative="1" as="geometry" />
        </mxCell>
        <mxCell id="MlIgKcx3DfCS0xwd3TZx-43" value="条件" style="rhombus;whiteSpace=wrap;html=1;fillColor=#e1d5e7;strokeColor=#9673a6;" parent="1" vertex="1">
          <mxGeometry x="600" y="460" width="80" height="80" as="geometry" />
        </mxCell>
        <mxCell id="MlIgKcx3DfCS0xwd3TZx-47" style="edgeStyle=orthogonalEdgeStyle;rounded=0;orthogonalLoop=1;jettySize=auto;html=1;exitX=1;exitY=0.5;exitDx=0;exitDy=0;entryX=0;entryY=0.5;entryDx=0;entryDy=0;" parent="1" source="MlIgKcx3DfCS0xwd3TZx-44" target="MlIgKcx3DfCS0xwd3TZx-45" edge="1">
          <mxGeometry relative="1" as="geometry" />
        </mxCell>
        <mxCell id="MlIgKcx3DfCS0xwd3TZx-44" value="事件" style="whiteSpace=wrap;html=1;fillColor=#e1d5e7;strokeColor=#9673a6;" parent="1" vertex="1">
          <mxGeometry x="720" y="470" width="120" height="60" as="geometry" />
        </mxCell>
        <mxCell id="MlIgKcx3DfCS0xwd3TZx-45" value="结束" style="ellipse;whiteSpace=wrap;html=1;aspect=fixed;fillColor=#f8cecc;strokeColor=#b85450;" parent="1" vertex="1">
          <mxGeometry x="880" y="480" width="40" height="40" as="geometry" />
        </mxCell>
        <mxCell id="DJhn8uhRI69oNtYbBqwW-2" value="事件" style="whiteSpace=wrap;html=1;fillColor=#e1d5e7;strokeColor=#9673a6;" parent="1" vertex="1">
          <mxGeometry x="720" y="555" width="120" height="60" as="geometry" />
        </mxCell>
        <mxCell id="DJhn8uhRI69oNtYbBqwW-5" value="" style="endArrow=classic;html=1;exitX=1;exitY=0.5;exitDx=0;exitDy=0;entryX=0.5;entryY=1;entryDx=0;entryDy=0;" parent="1" source="DJhn8uhRI69oNtYbBqwW-2" target="MlIgKcx3DfCS0xwd3TZx-45" edge="1">
          <mxGeometry width="50" height="50" relative="1" as="geometry">
            <mxPoint x="900" y="630" as="sourcePoint" />
            <mxPoint x="950" y="580" as="targetPoint" />
          </mxGeometry>
        </mxCell>
      </root>
    </mxGraphModel>
  </diagram>
  <diagram id="muo8QHdYfpq-5nY31HoK" name="事件引擎">
    <mxGraphModel dx="1426" dy="946" grid="1" gridSize="10" guides="1" tooltips="1" connect="1" arrows="1" fold="1" page="1" pageScale="1" pageWidth="827" pageHeight="1169" math="0" shadow="0">
      <root>
        <mxCell id="VUxkTAln7aTZIGjGBF91-0" />
        <mxCell id="VUxkTAln7aTZIGjGBF91-1" parent="VUxkTAln7aTZIGjGBF91-0" />
        <mxCell id="VnCyrjU4dHgNj5kqtMD2-0" value="front" style="swimlane;whiteSpace=wrap" vertex="1" parent="VUxkTAln7aTZIGjGBF91-1">
          <mxGeometry x="164.5" y="128" width="280" height="570" as="geometry" />
        </mxCell>
        <mxCell id="VnCyrjU4dHgNj5kqtMD2-1" value="" style="ellipse;shape=startState;fillColor=#000000;strokeColor=#ff0000;" vertex="1" parent="VnCyrjU4dHgNj5kqtMD2-0">
          <mxGeometry x="100" y="40" width="30" height="30" as="geometry" />
        </mxCell>
        <mxCell id="VnCyrjU4dHgNj5kqtMD2-2" value="" style="edgeStyle=elbowEdgeStyle;elbow=horizontal;verticalAlign=bottom;endArrow=open;endSize=8;strokeColor=#FF0000;endFill=1;rounded=0" edge="1" parent="VnCyrjU4dHgNj5kqtMD2-0" source="VnCyrjU4dHgNj5kqtMD2-1" target="VnCyrjU4dHgNj5kqtMD2-3">
          <mxGeometry x="100" y="40" as="geometry">
            <mxPoint x="115" y="110" as="targetPoint" />
          </mxGeometry>
        </mxCell>
        <mxCell id="VnCyrjU4dHgNj5kqtMD2-3" value="build request param" style="" vertex="1" parent="VnCyrjU4dHgNj5kqtMD2-0">
          <mxGeometry x="60" y="110" width="110" height="50" as="geometry" />
        </mxCell>
        <mxCell id="VnCyrjU4dHgNj5kqtMD2-4" value="user action" style="" vertex="1" parent="VnCyrjU4dHgNj5kqtMD2-0">
          <mxGeometry x="60" y="220" width="110" height="50" as="geometry" />
        </mxCell>
        <mxCell id="VnCyrjU4dHgNj5kqtMD2-5" value="" style="endArrow=open;strokeColor=#FF0000;endFill=1;rounded=0" edge="1" parent="VnCyrjU4dHgNj5kqtMD2-0" source="VnCyrjU4dHgNj5kqtMD2-3" target="VnCyrjU4dHgNj5kqtMD2-4">
          <mxGeometry relative="1" as="geometry" />
        </mxCell>
        <mxCell id="VnCyrjU4dHgNj5kqtMD2-7" value="" style="endArrow=open;strokeColor=#FF0000;endFill=1;rounded=0;entryX=0.5;entryY=0;entryDx=0;entryDy=0;" edge="1" parent="VnCyrjU4dHgNj5kqtMD2-0" source="VnCyrjU4dHgNj5kqtMD2-4" target="VnCyrjU4dHgNj5kqtMD2-39">
          <mxGeometry relative="1" as="geometry">
            <mxPoint x="115" y="325" as="targetPoint" />
          </mxGeometry>
        </mxCell>
        <mxCell id="VnCyrjU4dHgNj5kqtMD2-8" value="" style="edgeStyle=elbowEdgeStyle;elbow=horizontal;strokeColor=#FF0000;endArrow=open;endFill=1;rounded=0;exitX=0;exitY=0.5;exitDx=0;exitDy=0;entryX=0;entryY=0.5;entryDx=0;entryDy=0;" edge="1" parent="VnCyrjU4dHgNj5kqtMD2-0" source="VnCyrjU4dHgNj5kqtMD2-39" target="VnCyrjU4dHgNj5kqtMD2-4">
          <mxGeometry width="100" height="100" relative="1" as="geometry">
            <mxPoint x="60" y="350" as="sourcePoint" />
            <mxPoint x="260" y="190" as="targetPoint" />
            <Array as="points">
              <mxPoint x="30" y="250" />
            </Array>
          </mxGeometry>
        </mxCell>
        <mxCell id="VnCyrjU4dHgNj5kqtMD2-41" value="yes" style="edgeLabel;html=1;align=center;verticalAlign=middle;resizable=0;points=[];" vertex="1" connectable="0" parent="VnCyrjU4dHgNj5kqtMD2-8">
          <mxGeometry x="-0.8801" relative="1" as="geometry">
            <mxPoint x="1" as="offset" />
          </mxGeometry>
        </mxCell>
        <mxCell id="VnCyrjU4dHgNj5kqtMD2-39" value="front event" style="rhombus;fillColor=#ffffc0;strokeColor=#ff0000;" vertex="1" parent="VnCyrjU4dHgNj5kqtMD2-0">
          <mxGeometry x="75" y="332" width="80" height="40" as="geometry" />
        </mxCell>
        <mxCell id="VnCyrjU4dHgNj5kqtMD2-9" value="hzero-lowcode" style="swimlane;whiteSpace=wrap" vertex="1" parent="VUxkTAln7aTZIGjGBF91-1">
          <mxGeometry x="444.5" y="128" width="280" height="570" as="geometry" />
        </mxCell>
        <mxCell id="VnCyrjU4dHgNj5kqtMD2-12" value="idle" style="" vertex="1" parent="VnCyrjU4dHgNj5kqtMD2-9">
          <mxGeometry x="20" y="110" width="110" height="50" as="geometry" />
        </mxCell>
        <mxCell id="VnCyrjU4dHgNj5kqtMD2-13" value="check for &#xa;new commands" style="" vertex="1" parent="VnCyrjU4dHgNj5kqtMD2-9">
          <mxGeometry x="20" y="220" width="110" height="50" as="geometry" />
        </mxCell>
        <mxCell id="VnCyrjU4dHgNj5kqtMD2-14" value="" style="endArrow=open;strokeColor=#FF0000;endFill=1;rounded=0" edge="1" parent="VnCyrjU4dHgNj5kqtMD2-9" source="VnCyrjU4dHgNj5kqtMD2-12" target="VnCyrjU4dHgNj5kqtMD2-13">
          <mxGeometry relative="1" as="geometry" />
        </mxCell>
        <mxCell id="VnCyrjU4dHgNj5kqtMD2-15" value="command queue" style="" vertex="1" parent="VnCyrjU4dHgNj5kqtMD2-9">
          <mxGeometry x="20" y="325" width="110" height="50" as="geometry" />
        </mxCell>
        <mxCell id="VnCyrjU4dHgNj5kqtMD2-16" value="" style="endArrow=open;strokeColor=#FF0000;endFill=1;rounded=0" edge="1" parent="VnCyrjU4dHgNj5kqtMD2-9" source="VnCyrjU4dHgNj5kqtMD2-13" target="VnCyrjU4dHgNj5kqtMD2-15">
          <mxGeometry relative="1" as="geometry" />
        </mxCell>
        <mxCell id="VnCyrjU4dHgNj5kqtMD2-17" value="queue empty" style="rhombus;fillColor=#ffffc0;strokeColor=#ff0000;" vertex="1" parent="VnCyrjU4dHgNj5kqtMD2-9">
          <mxGeometry x="150" y="225" width="80" height="40" as="geometry" />
        </mxCell>
        <mxCell id="VnCyrjU4dHgNj5kqtMD2-18" value="yes" style="edgeStyle=elbowEdgeStyle;elbow=horizontal;align=left;verticalAlign=bottom;endArrow=open;endSize=8;strokeColor=#FF0000;exitX=0.5;exitY=0;endFill=1;rounded=0;entryX=0.75;entryY=0.5;entryPerimeter=0" edge="1" parent="VnCyrjU4dHgNj5kqtMD2-9" source="VnCyrjU4dHgNj5kqtMD2-17" target="VnCyrjU4dHgNj5kqtMD2-21">
          <mxGeometry x="-1" relative="1" as="geometry">
            <mxPoint x="160" y="150" as="targetPoint" />
            <Array as="points">
              <mxPoint x="190" y="180" />
            </Array>
          </mxGeometry>
        </mxCell>
        <mxCell id="VnCyrjU4dHgNj5kqtMD2-19" value="no" style="edgeStyle=elbowEdgeStyle;elbow=horizontal;align=left;verticalAlign=top;endArrow=open;endSize=8;strokeColor=#FF0000;endFill=1;rounded=0" edge="1" parent="VnCyrjU4dHgNj5kqtMD2-9" source="VnCyrjU4dHgNj5kqtMD2-17" target="VnCyrjU4dHgNj5kqtMD2-23">
          <mxGeometry x="-1" relative="1" as="geometry">
            <mxPoint x="190" y="305" as="targetPoint" />
          </mxGeometry>
        </mxCell>
        <mxCell id="VnCyrjU4dHgNj5kqtMD2-20" value="" style="endArrow=open;strokeColor=#FF0000;endFill=1;rounded=0" edge="1" parent="VnCyrjU4dHgNj5kqtMD2-9" source="VnCyrjU4dHgNj5kqtMD2-13" target="VnCyrjU4dHgNj5kqtMD2-17">
          <mxGeometry relative="1" as="geometry" />
        </mxCell>
        <mxCell id="VnCyrjU4dHgNj5kqtMD2-21" value="" style="shape=line;strokeWidth=6;strokeColor=#ff0000;rotation=90" vertex="1" parent="VnCyrjU4dHgNj5kqtMD2-9">
          <mxGeometry x="130" y="127.5" width="50" height="15" as="geometry" />
        </mxCell>
        <mxCell id="VnCyrjU4dHgNj5kqtMD2-22" value="" style="edgeStyle=elbowEdgeStyle;elbow=horizontal;verticalAlign=bottom;endArrow=open;endSize=8;strokeColor=#FF0000;endFill=1;rounded=0" edge="1" parent="VnCyrjU4dHgNj5kqtMD2-9" source="VnCyrjU4dHgNj5kqtMD2-21" target="VnCyrjU4dHgNj5kqtMD2-12">
          <mxGeometry x="130" y="90" as="geometry">
            <mxPoint x="230" y="140" as="targetPoint" />
          </mxGeometry>
        </mxCell>
        <mxCell id="VnCyrjU4dHgNj5kqtMD2-23" value="dispatch&#xa;command&#xa;worker thread" style="" vertex="1" parent="VnCyrjU4dHgNj5kqtMD2-9">
          <mxGeometry x="140" y="325" width="110" height="50" as="geometry" />
        </mxCell>
        <mxCell id="VnCyrjU4dHgNj5kqtMD2-24" value="critical&#xa;section" style="shape=note;whiteSpace=wrap;size=17" vertex="1" parent="VnCyrjU4dHgNj5kqtMD2-9">
          <mxGeometry x="105" y="490" width="100" height="50" as="geometry" />
        </mxCell>
        <mxCell id="VnCyrjU4dHgNj5kqtMD2-25" value="" style="endArrow=none;strokeColor=#FF0000;endFill=0;rounded=0;dashed=1" edge="1" parent="VnCyrjU4dHgNj5kqtMD2-9" source="VnCyrjU4dHgNj5kqtMD2-15" target="VnCyrjU4dHgNj5kqtMD2-24">
          <mxGeometry relative="1" as="geometry" />
        </mxCell>
        <mxCell id="VnCyrjU4dHgNj5kqtMD2-26" value="" style="whiteSpace=wrap;strokeColor=#FF0000;fillColor=#FF0000" vertex="1" parent="VnCyrjU4dHgNj5kqtMD2-9">
          <mxGeometry x="245" y="395" width="5" height="45" as="geometry" />
        </mxCell>
        <mxCell id="VnCyrjU4dHgNj5kqtMD2-27" value="" style="edgeStyle=elbowEdgeStyle;elbow=horizontal;entryX=0;entryY=0.5;strokeColor=#FF0000;endArrow=open;endFill=1;rounded=0" edge="1" parent="VnCyrjU4dHgNj5kqtMD2-9" source="VnCyrjU4dHgNj5kqtMD2-23" target="VnCyrjU4dHgNj5kqtMD2-26">
          <mxGeometry width="100" height="100" relative="1" as="geometry">
            <mxPoint x="60" y="480" as="sourcePoint" />
            <mxPoint x="160" y="380" as="targetPoint" />
            <Array as="points">
              <mxPoint x="195" y="400" />
            </Array>
          </mxGeometry>
        </mxCell>
        <mxCell id="VnCyrjU4dHgNj5kqtMD2-28" value="hzero-modeler" style="swimlane;whiteSpace=wrap" vertex="1" parent="VUxkTAln7aTZIGjGBF91-1">
          <mxGeometry x="724.5" y="128" width="265.5" height="292" as="geometry" />
        </mxCell>
        <mxCell id="VnCyrjU4dHgNj5kqtMD2-30" value="" style="edgeStyle=elbowEdgeStyle;elbow=horizontal;strokeColor=#FF0000;endArrow=open;endFill=1;rounded=0;entryX=0.25;entryY=0.5;entryPerimeter=0" edge="1" parent="VnCyrjU4dHgNj5kqtMD2-28" target="VnCyrjU4dHgNj5kqtMD2-21">
          <mxGeometry width="100" height="100" relative="1" as="geometry">
            <mxPoint x="-30" y="410" as="sourcePoint" />
            <mxPoint x="-120" y="120" as="targetPoint" />
            <Array as="points">
              <mxPoint x="-10" y="135" />
            </Array>
          </mxGeometry>
        </mxCell>
        <mxCell id="VnCyrjU4dHgNj5kqtMD2-34" value="" style="endArrow=open;strokeColor=#FF0000;endFill=1;rounded=0" edge="1" parent="VUxkTAln7aTZIGjGBF91-1" target="VnCyrjU4dHgNj5kqtMD2-15">
          <mxGeometry relative="1" as="geometry">
            <mxPoint x="320" y="478" as="sourcePoint" />
          </mxGeometry>
        </mxCell>
        <mxCell id="VnCyrjU4dHgNj5kqtMD2-44" value="no" style="edgeLabel;html=1;align=center;verticalAlign=middle;resizable=0;points=[];" vertex="1" connectable="0" parent="VnCyrjU4dHgNj5kqtMD2-34">
          <mxGeometry x="-0.4464" y="-4" relative="1" as="geometry">
            <mxPoint as="offset" />
          </mxGeometry>
        </mxCell>
        <mxCell id="VnCyrjU4dHgNj5kqtMD2-37" value="hzero-xxx" style="swimlane;whiteSpace=wrap" vertex="1" parent="VUxkTAln7aTZIGjGBF91-1">
          <mxGeometry x="724.5" y="406" width="265.5" height="292" as="geometry" />
        </mxCell>
        <mxCell id="VnCyrjU4dHgNj5kqtMD2-38" value="" style="edgeStyle=elbowEdgeStyle;elbow=horizontal;strokeColor=#FF0000;endArrow=open;endFill=1;rounded=0;entryX=0.25;entryY=0.5;entryPerimeter=0" edge="1" parent="VnCyrjU4dHgNj5kqtMD2-37">
          <mxGeometry width="100" height="100" relative="1" as="geometry">
            <mxPoint x="-30" y="410" as="sourcePoint" />
            <mxPoint x="-120" y="120" as="targetPoint" />
            <Array as="points">
              <mxPoint x="-10" y="135" />
            </Array>
          </mxGeometry>
        </mxCell>
      </root>
    </mxGraphModel>
  </diagram>
</mxfile>
